HIERARCHY
ROOT Hips
{
 OFFSET 0.000000 0.000000 0.000000
 CHANNELS 6 Xposition Yposition Zposition Yrotation Xrotation Zrotation
 JOINT Chest
 {
  OFFSET 0.000000 9.585900 0.002600
  CHANNELS 3 Yrotation Xrotation Zrotation
  JOINT Chest2
  {
   OFFSET 0.000000 9.601200 -0.005300
   CHANNELS 3 Yrotation Xrotation Zrotation
   JOINT Chest3
   {
    OFFSET 0.000000 9.561800 0.000000
    CHANNELS 3 Yrotation Xrotation Zrotation
    JOINT Chest4
    {
     OFFSET 0.000000 9.552100 0.000000
     CHANNELS 3 Yrotation Xrotation Zrotation
     JOINT Neck
     {
      OFFSET 0.000000 14.453000 0.000000
      CHANNELS 3 Yrotation Xrotation Zrotation
      JOINT Head
      {
       OFFSET 0.000000 8.936500 -0.011300
       CHANNELS 3 Yrotation Xrotation Zrotation
       End Site
       {
        OFFSET 0.000000 17.073600 -0.006000
       }
      }
     }
     JOINT RightCollar
     {
      OFFSET -2.921100 9.558500 0.000000
      CHANNELS 3 Yrotation Xrotation Zrotation
      JOINT RightShoulder
      {
       OFFSET -13.519700 0.000000 0.000000
       CHANNELS 3 Yrotation Xrotation Zrotation
       JOINT RightElbow
       {
        OFFSET 0.000000 -29.696600 0.000000
        CHANNELS 3 Yrotation Xrotation Zrotation
        JOINT RightWrist
        {
         OFFSET 0.000000 -24.004700 0.000000
         CHANNELS 3 Yrotation Xrotation Zrotation
         End Site
         {
          OFFSET 0.000000 -17.728500 0.000000
         }
        }
       }
      }
     }
     JOINT LeftCollar
     {
      OFFSET 2.921100 9.558500 0.000000
      CHANNELS 3 Yrotation Xrotation Zrotation
      JOINT LeftShoulder
      {
       OFFSET 13.519700 0.000000 0.000000
       CHANNELS 3 Yrotation Xrotation Zrotation
       JOINT LeftElbow
       {
        OFFSET 0.000000 -29.696600 0.000000
        CHANNELS 3 Yrotation Xrotation Zrotation
        JOINT LeftWrist
        {
         OFFSET 0.000000 -24.004700 0.000000
         CHANNELS 3 Yrotation Xrotation Zrotation
         End Site
         {
          OFFSET 0.000000 -17.728500 0.000000
         }
        }
       }
      }
     }
    }
   }
  }
 }
 JOINT RightHip
 {
  OFFSET -7.771700 -0.012900 -0.001300
  CHANNELS 3 Yrotation Xrotation Zrotation
  JOINT RightKnee
  {
   OFFSET 0.000000 -40.869800 0.001200
   CHANNELS 3 Yrotation Xrotation Zrotation
   JOINT RightAnkle
   {
    OFFSET 0.000000 -39.717900 0.002100
    CHANNELS 3 Yrotation Xrotation Zrotation
    JOINT RightToe
    {
     OFFSET 0.000000 -4.965400 11.033500
     CHANNELS 3 Yrotation Xrotation Zrotation
     End Site
     {
      OFFSET 0.000000 -1.423100 5.872300
     }
    }
   }
  }
 }
 JOINT LeftHip
 {
  OFFSET 7.771700 -0.012900 -0.001300
  CHANNELS 3 Yrotation Xrotation Zrotation
  JOINT LeftKnee
  {
   OFFSET 0.000000 -40.869800 0.001200
   CHANNELS 3 Yrotation Xrotation Zrotation
   JOINT LeftAnkle
   {
    OFFSET 0.000000 -39.717900 0.002100
    CHANNELS 3 Yrotation Xrotation Zrotation
    JOINT LeftToe
    {
     OFFSET 0.000000 -4.965400 11.033500
     CHANNELS 3 Yrotation Xrotation Zrotation
     End Site
     {
      OFFSET 0.000000 -1.423100 5.872300
     }
    }
   }
  }
 }
}
MOTION
Frames: 15
Frame Time: 0.008333
-267.630407 60.742818 -83.108330 159.256551 -19.477319 3.016908 5.157529 15.144552 -0.072337 0.524311 1.470059 -0.078121 0.843463 2.482187 -0.113356 4.578766 13.445408 -0.176014 6.310972 16.919111 1.333353 6.474127 -7.762218 -0.022634 2.349622 -2.715567 -6.361510 0.397469 -16.545706 -8.210602 -109.511886 -83.936725 116.394654 -2.124271 2.832268 -39.390651 -6.708702 -5.139836 -1.034577 18.508225 -9.363710 2.806568 -172.314232 -72.740679 157.401011 -3.046100 1.627438 12.812903 -1.304926 -49.162457 1.964878 -20.859815 69.955212 -15.656883 0.947770 -4.879658 -4.761256 0.246921 -0.054967 0.003665 14.613168 -49.106283 -4.911945 26.565348 62.008169 26.688048 -14.393532 -13.096577 2.060688 -0.294755 -0.156082 -0.134213
-267.598819 60.742656 -83.115859 159.285041 -19.460489 3.033331 5.211389 15.085159 -0.102577 0.523558 1.457305 -0.081807 0.842437 2.461599 -0.119560 4.588315 13.390185 -0.213283 6.138870 17.028892 1.359847 6.276551 -7.652369 0.045298 2.437411 -2.857387 -6.319627 0.913361 -16.656715 -8.424916 -107.249492 -84.084280 114.150371 -1.952881 2.818295 -38.916684 -6.715812 -5.196592 -1.080571 18.341880 -9.492865 2.706482 -172.025267 -72.588036 156.958232 -3.182058 1.633503 12.412718 -1.337835 -49.177205 1.925273 -20.881501 69.992706 -15.606829 0.957391 -4.895257 -4.836053 0.269737 -0.073384 0.012509 14.617476 -49.111873 -4.944620 26.566848 62.010428 26.691541 -14.353453 -13.119891 2.060999 -0.311504 -0.139911 -0.146696
-267.574578 60.741879 -83.124627 159.393422 -19.434441 3.072252 5.209396 15.011109 -0.180617 0.502242 1.455403 -0.079038 0.841310 2.440911 -0.125274 4.597922 13.334317 -0.247909 5.944665 17.116986 1.369877 6.058701 -7.567143 0.100504 2.511016 -3.018086 -6.282594 1.380782 -16.738389 -8.598753 -106.202414 -84.310720 113.122700 -1.728382 2.723068 -38.337508 -6.722985 -5.262761 -1.127894 18.191386 -9.626011 2.598837 -171.655275 -72.430388 156.469581 -3.340306 1.698035 12.091420 -1.428917 -49.209283 1.818590 -20.840487 70.049197 -15.509628 0.924444 -4.906179 -4.886394 0.337558 -0.108607 -0.004795 14.601568 -49.110429 -5.046117 26.568839 61.992878 26.693908 -14.349853 -13.130480 2.058160 -0.382844 -0.128416 -0.170831
-267.548595 60.740966 -83.133761 159.480958 -19.406667 3.110466 5.217978 14.950738 -0.245724 0.501335 1.442036 -0.081979 0.839944 2.419305 -0.130364 4.607702 13.275722 -0.279638 5.740193 17.187631 1.370216 5.832309 -7.501278 0.147476 2.574029 -3.185449 -6.258105 1.785449 -16.792046 -8.729414 -106.257586 -84.588390 113.201962 -1.468017 2.525023 -37.694968 -6.729157 -5.333076 -1.178013 18.042334 -9.759280 2.485221 -171.193623 -72.289243 155.937495 -3.483329 1.805366 11.855154 -1.514780 -49.241470 1.732548 -20.820130 70.104404 -15.435132 0.940835 -4.930072 -4.967074 0.356640 -0.119538 0.020667 14.582363 -49.100694 -5.113997 26.516474 61.978537 26.622115 -14.336875 -13.179592 2.055361 -0.386221 -0.075891 -0.172985
-267.522374 60.739348 -83.141482 159.577349 -19.362875 3.138551 5.226274 14.877032 -0.299896 0.500016 1.427950 -0.084591 0.837962 2.396505 -0.134887 4.615640 13.214112 -0.309098 5.539743 17.245871 1.365526 5.612155 -7.448544 0.188004 2.632066 -3.344193 -6.253196 2.115622 -16.827822 -8.816985 -107.370153 -84.885319 114.347541 -1.193651 2.207996 -37.020678 -6.728454 -5.403625 -1.233334 17.883201 -9.890812 2.365103 -170.661095 -72.179989 155.389495 -3.600189 1.936562 11.677464 -1.704702 -49.287006 1.687179 -20.652030 70.173624 -15.251269 1.047056 -4.950792 -5.005957 0.291502 -0.126905 -0.013982 14.562257 -49.119788 -5.198420 26.506913 61.966598 26.602904 -14.311925 -13.216045 2.042159 -0.317807 -0.038727 -0.154293
-267.495268 60.738591 -83.151627 159.672160 -19.325214 3.160009 5.239104 14.813385 -0.342323 0.498344 1.413651 -0.087019 0.835504 2.373350 -0.139122 4.621622 13.151533 -0.337280 5.352752 17.294823 1.360023 5.407541 -7.405010 0.224542 2.684540 -3.489261 -6.266206 2.367808 -16.846753 -8.863182 -109.675155 -85.172232 116.691749 -0.932189 1.780631 -36.329900 -6.720027 -5.476986 -1.291673 17.712026 -10.016290 2.237617 -170.118676 -72.107911 154.869828 -3.705613 2.078885 11.537833 -1.867774 -49.323974 1.641493 -20.547669 70.234663 -15.115010 1.093592 -4.974286 -5.062406 0.287043 -0.136372 -0.020544 14.529986 -49.132747 -5.261689 26.491222 61.958593 26.568077 -14.237256 -13.255217 2.046924 -0.303490 -0.005334 -0.156999
-267.470507 60.738454 -83.163677 159.768954 -19.283009 3.186299 5.191242 14.759925 -0.398139 0.524786 1.397707 -0.091540 0.807121 2.370749 -0.137086 4.677498 13.063995 -0.378320 5.181721 17.336420 1.356626 5.220518 -7.368322 0.259639 2.726586 -3.623016 -6.290968 2.542778 -16.843041 -8.869695 -113.266498 -85.417294 120.329148 -0.705883 1.266930 -35.635724 -6.706016 -5.558100 -1.352163 17.534410 -10.129900 2.105618 -169.630532 -72.067672 154.417459 -3.800006 2.219708 11.424800 -2.009687 -49.365156 1.579317 -20.475094 70.293765 -15.001078 1.128569 -5.003231 -5.117452 0.293298 -0.142243 -0.024202 14.508076 -49.151990 -5.339337 26.488177 61.954378 26.548494 -14.199626 -13.287542 2.053534 -0.267892 0.016227 -0.153926
-267.444685 60.738844 -83.176435 159.870511 -19.236097 3.190793 5.227207 14.688552 -0.415981 0.495940 1.389892 -0.090937 0.831987 2.334886 -0.145967 4.662096 13.018541 -0.395778 5.027630 17.372511 1.357477 5.051593 -7.336541 0.295379 2.756873 -3.745671 -6.324130 2.641104 -16.816710 -8.838628 -117.868407 -85.586874 124.989974 -0.526266 0.688587 -34.950474 -6.687634 -5.647598 -1.419315 17.358247 -10.229318 1.977829 -169.226824 -72.057622 154.049655 -3.871313 2.356245 11.324968 -2.180935 -49.410120 1.541554 -20.383943 70.355652 -14.867171 1.163248 -5.017584 -5.119989 0.304648 -0.162666 -0.078985 14.464151 -49.180176 -5.395117 26.480379 61.948433 26.528107 -14.135677 -13.331609 2.055678 -0.274277 0.049342 -0.155758
-267.425224 60.739801 -83.191357 159.971029 -19.178008 3.216583 5.255697 14.612081 -0.451251 0.494567 1.373266 -0.093254 0.829978 2.307980 -0.150027 4.647843 12.970754 -0.411482 4.892992 17.402180 1.364228 4.902874 -7.310800 0.333056 2.778904 -3.852989 -6.365544 2.668114 -16.773303 -8.775032 -122.920989 -85.659680 130.117350 -0.404192 0.071371 -34.291822 -6.662475 -5.741087 -1.496639 17.193269 -10.315607 1.862417 -168.924546 -72.087771 153.776599 -3.919332 2.491090 11.232223 -2.320435 -49.464032 1.461371 -20.274517 70.418037 -14.709885 1.207790 -5.054322 -5.169283 0.307936 -0.160749 -0.086205 14.453701 -49.219946 -5.493691 26.476269 61.955425 26.509891 -14.109684 -13.364385 2.066226 -0.318779 0.060594 -0.161210
-267.409807 60.740798 -83.206675 160.080479 -19.104667 3.241130 5.245678 14.525838 -0.489710 0.493071 1.359091 -0.094682 0.827822 2.284973 -0.152532 4.656948 12.906507 -0.430840 4.778758 17.423457 1.379006 4.774787 -7.293170 0.374649 2.796457 -3.938146 -6.411535 2.631555 -16.722585 -8.688485 -127.774975 -85.629783 135.066386 -0.345729 -0.550186 -33.684093 -6.623533 -5.828675 -1.583203 17.045649 -10.393548 1.762278 -168.738154 -72.168185 153.603488 -3.952081 2.620939 11.143598 -2.455142 -49.533391 1.364649 -20.161079 70.481751 -14.540115 1.256323 -5.093177 -5.216293 0.304098 -0.157001 -0.094101 14.443174 -49.274570 -5.601558 26.457775 61.956611 26.487349 -14.141089 -13.387763 2.061619 -0.324786 0.072418 -0.152050
-267.396447 60.742416 -83.224134 160.181319 -19.031260 3.261024 5.241431 14.439163 -0.517117 0.491229 1.343828 -0.095782 0.825032 2.260255 -0.154534 4.665072 12.837376 -0.448115 4.683376 17.437183 1.404035 4.665114 -7.282703 0.422745 2.807259 -4.000151 -6.453070 2.536173 -16.675844 -8.591089 -131.785003 -85.508506 139.200520 -0.342974 -1.147760 -33.141100 -6.567200 -5.900030 -1.674413 16.918485 -10.471733 1.678912 -168.652344 -72.301748 153.508570 -3.968659 2.736119 11.055939 -2.578755 -49.602072 1.264118 -20.051767 70.546342 -14.363769 1.311913 -5.130891 -5.261869 0.280617 -0.131697 -0.058014 14.437066 -49.326050 -5.701285 26.441526 61.958008 26.459388 -14.152287 -13.423773 2.065500 -0.398022 0.094272 -0.155961
-267.390249 60.744559 -83.244927 160.282474 -18.956901 3.304087 5.226714 14.353933 -0.567246 0.489098 1.327802 -0.096653 0.821706 2.234251 -0.156198 4.672190 12.764383 -0.463977 4.603845 17.446701 1.440401 4.570272 -7.275996 0.479344 2.806069 -4.044724 -6.482892 2.379172 -16.642126 -8.491801 -134.594555 -85.324334 142.173970 -0.385412 -1.703363 -32.670117 -6.495365 -5.951268 -1.761183 16.813420 -10.554792 1.612649 -168.626569 -72.484095 153.451263 -3.962525 2.827719 10.970845 -2.663102 -49.673335 1.113663 -19.943009 70.612614 -14.178573 1.322505 -5.175635 -5.323185 0.320053 -0.126491 -0.045346 14.463907 -49.375924 -5.835433 26.434867 61.961836 26.443655 -14.213862 -13.451964 2.074785 -0.409136 0.081215 -0.158634
-267.389916 60.746258 -83.266634 160.385401 -18.871846 3.358312 5.205630 14.258476 -0.629908 0.486758 1.311645 -0.097511 0.818134 2.208046 -0.157762 4.677974 12.690527 -0.479828 4.534043 17.455772 1.487812 4.483603 -7.269283 0.545513 2.788993 -4.077582 -6.497805 2.154195 -16.625159 -8.392271 -136.312517 -85.108547 144.102831 -0.464177 -2.200737 -32.288140 -6.412271 -5.983593 -1.835504 16.729065 -10.639816 1.562644 -168.614329 -72.703795 153.392239 -3.933240 2.896050 10.889416 -2.723238 -49.756747 0.936214 -19.830011 70.680866 -13.985582 1.361195 -5.229658 -5.369134 0.329877 -0.109780 -0.045824 14.506857 -49.435210 -5.989783 26.401566 61.977360 26.409643 -14.376534 -13.477065 2.069510 -0.497431 0.075999 -0.162246
-267.383605 60.747446 -83.287745 160.484402 -18.792300 3.357191 5.200397 14.160983 -0.633130 0.484177 1.295736 -0.098305 0.772910 2.212363 -0.164094 4.722857 12.587433 -0.494596 4.464527 17.469914 1.543387 4.395586 -7.256845 0.620223 2.755068 -4.100283 -6.499056 1.860706 -16.624018 -8.292119 -137.256204 -84.887915 145.301649 -0.567732 -2.629730 -32.008798 -6.321304 -5.999352 -1.897068 16.668069 -10.720480 1.528563 -168.459348 -72.910048 153.128664 -3.833955 2.974106 10.868053 -2.810879 -49.835021 0.856000 -19.816573 70.739139 -13.892070 1.359095 -5.267317 -5.410908 0.371121 -0.111381 -0.031122 14.528982 -49.500730 -6.094463 26.348386 61.997527 26.369724 -14.387232 -13.525892 2.078771 -0.511320 0.086831 -0.166564
-267.373443 60.748351 -83.309860 160.574828 -18.724528 3.319370 5.209543 14.068768 -0.594049 0.481207 1.279906 -0.098770 0.729631 2.219513 -0.171592 4.761967 12.481579 -0.505307 4.385465 17.496401 1.602084 4.296726 -7.231211 0.700494 2.704990 -4.110338 -6.490876 1.511369 -16.635355 -8.192592 -137.730042 -84.682346 146.060282 -0.678575 -2.986347 -31.834498 -6.222605 -5.998788 -1.947503 16.634334 -10.791169 1.510144 -168.526619 -73.195644 153.144290 -3.817508 3.027628 10.777340 -2.935850 -49.898739 0.837163 -19.784369 70.798230 -13.783249 1.358440 -5.295217 -5.448280 0.402443 -0.122702 -0.018557 14.493223 -49.569635 -6.136145 26.364223 62.019405 26.377069 -14.252125 -13.589621 2.098540 -0.455539 0.099730 -0.166018
